<svg xmlns="http://www.w3.org/2000/svg" viewBox="0 0 273 269" width="273" height="269">
	<style>
		tspan { white-space:pre }
		.shp0 { fill: none;stroke: #bfbfbf;stroke-width: 4 } 
		.shp1 { fill: #ffffff } 
	</style>
	<path id="Shape 2" class="shp0" d="M136 266C61.9 266 2 207 2 134C2 61 61.9 2 136 2C210.1 2 270 61 270 134C270 207 210.1 266 136 266Z" />
	<path id="path" class="shp1" d="M161.48 45.57C161.48 35.87 153.73 28 144.18 28C134.63 28 126.89 35.87 126.89 45.57C126.89 55.27 134.63 63.13 144.18 63.13C153.73 63.13 161.48 55.27 161.48 45.57ZM152.83 122.42L180.93 133.4C180.93 133.4 190.61 138.92 193.9 131.21C197.3 123.28 191.74 120.23 191.74 120.23L154.99 104.86L152.83 122.42ZM109.57 137.82L146.32 186.12L154.97 221.26C154.97 221.26 158 229.2 165.78 227.84C172.49 226.65 174.43 219.06 174.43 219.06L165.78 175.15L146.32 144.4L148.49 96.09L148.49 78.53C148.49 78.53 144.63 69.57 129.03 69.74C122.34 69.81 103.09 82.91 103.09 82.91C103.09 82.91 85.01 92.91 83.63 98.28C80.9 108.95 75 131.21 75 131.21C75 131.21 76.37 140.14 81.48 139.99C87.07 139.83 90.13 129.01 90.13 129.01L98.78 104.85L111.73 96.1L109.57 137.82ZM109.59 177.31L85.81 208.06C85.81 208.06 78.63 216.67 87.97 223.43C95.64 228.97 103.1 221.23 103.1 221.23L133.37 179.51L113.91 155.36L109.59 177.31Z" />
</svg>