<?xml version="1.0" encoding="UTF-8"?>
<svg width="99px" height="178px" viewBox="0 0 99 178" xmlns="http://www.w3.org/2000/svg" xmlns:xlink="http://www.w3.org/1999/xlink" version="1.1">
 <!-- Generated by Pixelmator Pro 2.0.6 -->
 <g id="New-Group">
  <path id="Rounded-Rectangle" d="M16 178 C7.164 178 0 170.836 0 162 L0 16 C0 7.164 7.164 0 16 0 L83 0 C91.836 0 99 7.164 99 16 L99 162 C99 170.836 91.836 178 83 178 L16 178 Z M49.5 172 C54.194 172 58 168.194 58 163.5 58 158.806 54.194 155 49.5 155 44.806 155 41 158.806 41 163.5 41 168.194 44.806 172 49.5 172 Z M10 149 L89 149 89 29 10 29 10 149 Z M42.5 18 L56.5 18 C57.881 18 59 16.881 59 15.5 59 14.119 57.881 13 56.5 13 L42.5 13 C41.119 13 40 14.119 40 15.5 40 16.881 41.119 18 42.5 18 Z" fill="#000000" fill-opacity="1" stroke="none"/>
 </g>
</svg>
