<?xml version="1.0" encoding="UTF-8"?>
<svg width="1000px" height="1000px" viewBox="0 0 1000 1000" xmlns="http://www.w3.org/2000/svg" xmlns:xlink="http://www.w3.org/1999/xlink" version="1.1">
 <!-- Generated by Pixelmator Pro 1.8 -->
 <path id="Shape" d="M483.5 124.5 C449.729 123.643 443.731 123.135 442.822 122.225 441.792 121.192 442.116 119.94 444.525 115.646 446.161 112.729 458.975 90.664 473 66.613 487.025 42.563 499.291 22.026 500.257 20.977 501.224 19.927 502.585 19.287 503.282 19.555 503.98 19.822 513.764 35.838 525.025 55.145 536.286 74.453 549.511 97.185 554.414 105.661 561.395 117.732 563.065 121.336 562.116 122.286 561.279 123.125 554.507 123.655 540.203 124 L519.5 124.5 519.248 333.324 C519.028 514.842 519.184 542.105 520.438 541.824 521.232 541.646 542.045 522.429 566.69 499.12 591.336 475.81 617.391 450.984 624.592 443.949 635.794 433.004 638.247 430.029 641.592 423.329 645.5 415.5 645.5 415.5 645.5 365 L645.5 314.5 628.667 314 C613.486 313.549 611.695 313.309 610.417 311.559 609.238 309.944 609 301.067 609 258.809 609 209.333 609.052 207.948 611 206 612.948 204.052 614.333 204 664 204 713.667 204 715.052 204.052 717 206 718.948 207.948 719 209.333 719 258.809 719 301.068 718.762 309.944 717.583 311.559 716.302 313.314 714.509 313.548 698.833 314 L681.5 314.5 681.32 361 C681.207 390.371 680.715 410.217 679.984 414.875 679.348 418.932 677.333 425.794 675.507 430.124 673.681 434.454 669.708 441.71 666.679 446.248 663.65 450.787 658.269 457.875 654.723 462 651.177 466.125 630.101 486.55 607.888 507.388 585.674 528.227 559.772 552.751 550.327 561.888 539.798 572.072 531.693 580.822 529.378 584.5 527.301 587.8 524.229 594.325 522.551 599 519.5 607.5 519.5 607.5 519.222 708.199 L518.945 808.899 526.222 811.051 C530.225 812.235 536.705 814.677 540.622 816.478 544.539 818.278 550.614 821.698 554.122 824.077 557.63 826.456 562.647 830.408 565.272 832.859 567.897 835.31 572.288 840.342 575.03 844.041 577.773 847.74 582.015 854.987 584.459 860.145 586.902 865.302 589.603 872.216 590.46 875.508 591.318 878.8 592.502 885.468 593.093 890.326 593.866 896.684 593.858 901.478 593.064 907.441 592.458 911.998 591.286 918.375 590.46 921.613 589.634 924.851 586.919 931.75 584.428 936.944 581.937 942.138 577.931 949.145 575.527 952.515 573.122 955.884 568.308 961.278 564.828 964.502 561.347 967.725 556.015 971.969 552.978 973.931 549.941 975.894 544.286 978.96 540.411 980.744 536.536 982.528 529.837 984.891 525.523 985.994 519.304 987.585 514.556 987.989 502.59 987.945 491.106 987.903 485.764 987.435 480.236 985.987 476.241 984.94 469.067 982.253 464.293 980.016 459.52 977.779 453.113 974.098 450.057 971.835 447.001 969.572 442.556 965.871 440.18 963.611 437.804 961.35 433.638 956.515 430.922 952.867 428.206 949.218 423.95 941.94 421.464 936.692 418.823 931.117 416.094 923.274 414.899 917.825 413.774 912.696 412.796 904.667 412.725 899.982 412.655 895.296 413.194 888.122 413.924 884.038 414.654 879.954 416.288 873.562 417.557 869.834 418.825 866.105 421.471 860.005 423.438 856.277 425.405 852.55 429.334 846.413 432.169 842.64 435.005 838.866 440.514 833.132 444.412 829.896 448.311 826.661 455.1 822.117 459.5 819.798 463.9 817.479 470.86 814.385 474.966 812.922 479.073 811.459 482.818 809.64 483.289 808.881 483.76 808.121 483.999 792.425 483.819 774 483.493 740.5 483.493 740.5 480.682 732.538 479.137 728.159 475.778 721.426 473.218 717.576 470.631 713.685 462.999 705.178 456.032 698.421 449.14 691.736 434.383 677.661 423.239 667.144 412.096 656.627 395.005 640.479 385.259 631.261 375.513 622.042 363.518 610.45 358.604 605.5 353.69 600.55 346.796 592.675 343.284 588 339.772 583.325 334.445 574.546 331.447 568.492 327.103 559.719 325.742 555.759 324.748 548.992 323.866 542.99 323.55 526.574 323.672 493 323.829 449.789 323.693 445.351 322.172 443.849 321.252 442.941 318.038 440.97 315.028 439.47 312.019 437.969 306.833 433.987 303.506 430.621 300.178 427.254 296.017 421.763 294.259 418.419 292.501 415.074 290.373 409.692 289.531 406.458 288.689 403.225 288.005 396.962 288.012 392.54 288.018 388.118 288.636 382.199 289.385 379.388 290.134 376.576 292.435 371.062 294.498 367.135 296.951 362.468 300.38 358.005 304.402 354.248 307.785 351.086 313.309 347.035 316.676 345.245 320.043 343.455 326.046 341.257 330.016 340.36 334.922 339.252 339.678 338.9 344.867 339.26 349.065 339.552 355.169 340.733 358.432 341.884 361.695 343.035 366.804 345.444 369.786 347.238 372.768 349.032 377.523 352.992 380.354 356.039 383.184 359.085 386.956 364.311 388.736 367.652 390.515 370.992 392.686 376.518 393.561 379.931 394.435 383.344 395.167 388.97 395.187 392.434 395.207 395.898 394.706 401.143 394.074 404.088 393.443 407.034 391.338 412.746 389.397 416.781 387.022 421.72 383.848 426.144 379.684 430.32 376.15 433.864 370.452 438.164 366.389 440.354 359.278 444.185 359.278 444.185 358.639 451.743 358.288 455.9 358 478.319 358 501.562 358 539.933 358.171 544.371 359.858 549.79 360.879 553.073 363.115 558.205 364.825 561.195 366.76 564.577 373.345 571.894 382.255 580.565 390.131 588.229 405.891 603.392 417.277 614.26 428.664 625.129 447.425 643.056 458.968 654.098 470.512 665.141 480.868 674.414 481.98 674.705 484.004 675.234 484.004 675.234 483.752 399.867 L483.5 124.5 Z" fill="#000000" fill-opacity="1" stroke="none"/>
</svg>
