<?xml version="1.0" encoding="UTF-8"?>
<svg width="1000px" height="1000px" viewBox="0 0 1000 1000" xmlns="http://www.w3.org/2000/svg" xmlns:xlink="http://www.w3.org/1999/xlink" version="1.1">
 <!-- Generated by Pixelmator Pro 1.8 -->
 <g id="New-Group">
  <path id="Shape" d="M113.586 384.753 C112.029 384.941 101.232 374.904 71 345.162 42.706 317.326 30.411 304.581 30.204 302.873 29.972 300.957 31.488 298.916 37.204 293.452 41.217 289.616 48.1 283.313 52.5 279.445 56.9 275.578 64.775 268.862 70 264.521 75.225 260.179 85.8 251.918 93.5 246.163 101.2 240.408 116.5 229.735 127.5 222.445 138.5 215.155 153.125 205.967 160 202.028 166.875 198.089 184.425 188.918 199 181.648 213.575 174.378 234.77 164.726 246.1 160.198 257.431 155.671 274.981 149.22 285.1 145.862 295.22 142.504 310.611 137.815 319.303 135.44 327.995 133.066 341.945 129.586 350.303 127.707 358.661 125.827 369.325 123.57 374 122.689 378.675 121.809 388.125 120.181 395 119.071 401.875 117.961 414.925 116.162 424 115.073 433.075 113.985 449.95 112.51 461.5 111.797 473.05 111.084 491.275 110.5 502 110.5 512.725 110.5 530.95 111.084 542.5 111.797 554.05 112.51 570.925 113.994 580 115.093 589.075 116.192 603.025 118.17 611 119.489 618.975 120.808 633.309 123.473 642.853 125.411 652.397 127.349 668.757 131.216 679.208 134.004 689.658 136.791 706.954 141.98 717.643 145.535 728.331 149.089 746.172 155.65 757.288 160.114 768.405 164.578 787.625 173.149 800 179.16 812.375 185.172 829.7 194.187 838.5 199.194 847.3 204.201 861.92 213.066 870.99 218.895 880.059 224.723 893.424 233.85 900.69 239.176 907.956 244.502 919.186 253.043 925.644 258.157 932.103 263.27 941.237 270.802 945.943 274.894 950.65 278.985 957.987 285.472 962.25 289.309 967.584 294.11 970 296.991 970 298.551 970 300.211 958.859 311.805 928.291 341.954 896.335 373.474 886.087 383.023 884.464 382.796 883.298 382.633 878.555 379.048 873.922 374.829 869.29 370.61 860.775 363.21 855 358.385 849.225 353.561 838.491 345.155 831.147 339.706 823.802 334.258 812.552 326.38 806.147 322.201 799.741 318.022 790.225 312.063 785 308.958 779.775 305.854 770.057 300.346 763.404 296.719 756.751 293.091 744.826 287.115 736.904 283.441 728.982 279.766 715.3 273.93 706.5 270.473 697.7 267.016 682.85 261.684 673.5 258.625 664.15 255.565 649.525 251.267 641 249.073 632.475 246.879 617.4 243.533 607.5 241.637 597.6 239.741 584.497 237.484 578.383 236.62 572.268 235.756 557.868 234.261 546.383 233.298 533.437 232.212 515.808 231.552 500 231.561 484.664 231.569 466.234 232.263 453.762 233.3 442.356 234.249 426.831 235.936 419.262 237.048 411.693 238.161 400.775 239.97 395 241.07 389.225 242.169 378.65 244.438 371.5 246.111 364.35 247.784 351.75 251.123 343.5 253.53 335.25 255.937 322.65 259.915 315.5 262.371 308.35 264.826 295.3 269.809 286.5 273.444 277.7 277.079 261.5 284.52 250.5 289.98 239.5 295.44 223.975 303.82 216 308.604 208.025 313.387 196.1 320.944 189.5 325.398 182.9 329.852 173 336.824 167.5 340.892 162 344.96 153.675 351.464 149 355.345 144.325 359.226 134.914 367.373 128.086 373.451 121.258 379.528 114.733 384.614 113.586 384.753 Z" fill="#000000" fill-opacity="1" stroke="none"/>
  <path id="Shape-1" d="M244.65 514.581 C243.565 514.997 235.294 507.6 217.298 490.118 203.109 476.336 184.316 457.857 175.536 449.054 164.651 438.141 159.571 432.351 159.571 430.859 159.571 429.44 161.847 426.594 166.036 422.774 169.591 419.532 177.45 412.711 183.5 407.615 189.55 402.519 199 394.971 204.5 390.841 210 386.71 220.575 379.254 228 374.27 235.425 369.287 247.125 361.98 254 358.034 260.875 354.088 274.6 346.874 284.5 342.002 294.4 337.13 309.025 330.582 317 327.449 324.975 324.316 338.25 319.507 346.5 316.762 354.75 314.017 369.347 309.797 378.938 307.384 388.529 304.971 403.604 301.688 412.438 300.088 421.272 298.488 437.05 296.126 447.5 294.839 464.02 292.805 470.938 292.5 500.5 292.5 529.899 292.5 537.203 292.819 554.472 294.857 565.456 296.153 580.306 298.292 587.472 299.61 594.637 300.928 605.45 303.104 611.5 304.445 617.55 305.786 628.244 308.475 635.264 310.419 642.285 312.362 654.435 316.148 662.264 318.831 670.094 321.513 682.35 326.109 689.5 329.044 696.65 331.978 712.625 339.451 725 345.649 737.375 351.847 754.025 361.028 762 366.052 769.975 371.075 781.51 378.788 787.633 383.191 793.757 387.594 804.107 395.434 810.633 400.613 817.16 405.791 826.438 413.653 831.25 418.082 837.128 423.492 840 426.853 840 428.322 840 429.87 828.006 442.493 798.967 471.505 772.85 497.599 757.249 512.474 756.049 512.429 755.012 512.391 750.639 509.205 746.331 505.35 742.024 501.496 734.225 494.981 729 490.873 723.775 486.765 715.9 480.907 711.5 477.854 707.1 474.802 698.239 469.103 691.808 465.189 685.377 461.276 674.661 455.339 667.994 451.997 661.327 448.655 650.388 443.65 643.686 440.876 636.984 438.101 626.325 434.092 620 431.966 613.675 429.84 603.55 426.777 597.5 425.158 591.45 423.54 582 421.283 576.5 420.142 571 419.002 561.775 417.379 556 416.536 550.225 415.692 539.697 414.552 532.605 414.001 525.512 413.451 511.29 413 501 413 490.71 413 476.488 413.451 469.395 414.002 462.303 414.553 451.55 415.73 445.5 416.618 439.45 417.506 427.525 419.804 419 421.724 410.475 423.645 397.65 427.008 390.5 429.197 383.35 431.387 371.718 435.462 364.65 438.254 357.583 441.045 345.479 446.417 337.752 450.191 330.024 453.964 318.707 460.046 312.601 463.705 306.495 467.365 297.617 472.953 292.872 476.123 288.126 479.294 279.576 485.581 273.872 490.095 268.167 494.609 259.608 501.831 254.852 506.143 250.096 510.456 245.505 514.253 244.65 514.581 Z" fill="#000000" fill-opacity="1" stroke="none"/>
  <path id="Shape-2" d="M369.032 638.702 C367.383 639.133 359.355 631.681 327.742 600.369 304.579 577.426 288.374 560.621 288.194 559.355 287.964 557.747 289.844 555.488 295.694 550.343 299.987 546.566 307.325 540.5 312 536.863 316.675 533.225 325.544 526.884 331.709 522.771 337.873 518.659 349.348 511.987 357.209 507.945 365.069 503.904 376.055 498.708 381.621 496.398 387.188 494.088 396.452 490.59 402.208 488.623 407.964 486.656 418.115 483.684 424.766 482.018 431.417 480.352 443.586 477.869 451.808 476.5 460.031 475.13 474.2 473.561 483.294 473.012 494.194 472.355 505.662 472.35 516.941 472.997 526.352 473.536 540.822 475.106 549.097 476.484 557.371 477.862 569.523 480.337 576.1 481.985 582.677 483.632 592.183 486.373 597.225 488.076 602.267 489.779 610.809 492.932 616.207 495.082 621.605 497.233 630.629 501.295 636.261 504.109 641.892 506.923 650.775 511.713 656 514.754 661.225 517.795 669.775 523.228 675 526.826 680.225 530.424 687.875 536.083 692 539.401 696.125 542.718 702.088 547.686 705.25 550.439 708.722 553.461 711 556.25 711 557.477 711 558.819 697.749 572.763 672.01 598.505 650.565 619.952 632.09 637.647 630.955 637.827 629.648 638.034 627.351 636.743 624.695 634.309 622.388 632.194 617.8 628.402 614.5 625.882 611.2 623.361 604.853 619.02 600.395 616.234 595.938 613.448 588.738 609.387 584.395 607.21 580.053 605.032 572.225 601.655 567 599.705 561.775 597.754 553 595.026 547.5 593.641 542 592.257 532.717 590.422 526.872 589.562 520.639 588.646 509.525 588 500 588 490.487 588 479.353 588.647 473.128 589.561 467.283 590.419 458.9 592.012 454.5 593.101 450.1 594.189 443.125 596.253 439 597.686 434.875 599.12 428.027 601.754 423.783 603.54 419.539 605.326 412.339 608.923 407.783 611.534 403.227 614.146 396.011 618.726 391.746 621.713 387.481 624.7 381.087 629.624 377.536 632.655 373.985 635.686 370.158 638.407 369.032 638.702 Z" fill="#000000" fill-opacity="1" stroke="none"/>
  <path id="Shape-3" d="M499 890.889 C492.125 890.831 483.14 890.171 479.033 889.422 474.927 888.673 468.031 886.92 463.709 885.526 459.387 884.132 452.512 881.449 448.43 879.563 444.349 877.677 437.136 873.53 432.401 870.347 427.666 867.164 420.119 860.946 415.631 856.53 411.142 852.113 404.944 844.9 401.858 840.5 398.772 836.1 394.45 828.9 392.255 824.5 390.059 820.1 387.113 813.125 385.707 809 384.301 804.875 382.442 798.031 381.576 793.792 380.542 788.735 380 780.769 380 770.63 380 761.395 380.574 752.174 381.427 747.717 382.212 743.615 384.071 736.713 385.559 732.379 387.046 728.046 390.064 720.904 392.264 716.508 394.465 712.112 398.526 705.137 401.288 701.008 404.051 696.879 409.958 689.875 414.415 685.445 418.872 681.015 425.89 675.011 430.01 672.103 434.129 669.196 440.583 665.255 444.351 663.345 448.119 661.436 454.64 658.549 458.842 656.931 463.044 655.313 470.986 653.021 476.491 651.838 483.745 650.278 490.078 649.676 499.5 649.649 508.04 649.625 515.588 650.221 521.5 651.386 526.45 652.362 533.875 654.309 538 655.712 542.125 657.116 549.55 660.286 554.5 662.757 559.45 665.228 567.1 669.86 571.5 673.049 575.9 676.239 582.498 681.92 586.162 685.674 589.826 689.428 595.246 695.905 598.206 700.067 601.165 704.229 605.435 711.204 607.693 715.567 609.952 719.93 613.148 727.55 614.795 732.5 616.442 737.45 618.4 745.1 619.145 749.5 619.89 753.9 620.5 763.82 620.5 771.545 620.5 782.609 620.005 787.808 618.165 796.045 616.881 801.795 613.819 811.296 611.361 817.157 608.902 823.019 604.269 831.794 601.065 836.657 597.86 841.521 592.213 848.768 588.515 852.762 584.817 856.755 577.901 862.95 573.146 866.527 568.391 870.104 560.632 875.034 555.904 877.483 551.177 879.931 543.302 883.271 538.404 884.903 533.507 886.536 525.45 888.574 520.5 889.433 515.234 890.346 506.314 890.95 499 890.889 Z" fill="#000000" fill-opacity="1" stroke="none"/>
 </g>
</svg>
