<svg height="269" viewBox="0 0 273 269" width="273" xmlns="http://www.w3.org/2000/svg"><path d="m161.48 45.57c0-9.7-7.75-17.57-17.3-17.57s-17.29 7.87-17.29 17.57 7.74 17.56 17.29 17.56 17.3-7.86 17.3-17.56zm-8.65 76.85 28.1 10.98s9.68 5.52 12.97-2.19c3.4-7.93-2.16-10.98-2.16-10.98l-36.75-15.37zm-43.26 15.4 36.75 48.3 8.65 35.14s3.03 7.94 10.81 6.58c6.71-1.19 8.65-8.78 8.65-8.78l-8.65-43.91-19.46-30.75 2.17-48.31v-17.56s-3.86-8.96-19.46-8.79c-6.69.07-25.94 13.17-25.94 13.17s-18.08 10-19.46 15.37c-2.73 10.67-8.63 32.93-8.63 32.93s1.37 8.93 6.48 8.78c5.59-.16 8.65-10.98 8.65-10.98l8.65-24.16 12.95-8.75zm.02 39.49-23.78 30.75s-7.18 8.61 2.16 15.37c7.67 5.54 15.13-2.2 15.13-2.2l30.27-41.72-19.46-24.15z" fill="#000"/></svg>