<svg width="72" height="80" viewBox="0 0 72 80" xmlns="http://www.w3.org/2000/svg" xmlns:xlink="http://www.w3.org/1999/xlink">
    <g id="Black-S-copy">
        <path id="Path" fill="#000000" stroke="none" d="M 9.76709 79.515625 C 10.808838 79.515625 11.850342 79.360962 12.89209 79.051758 C 13.933838 78.742554 15.154541 78.18103 16.554199 77.367188 L 64.112793 49.730469 C 66.033447 48.591187 67.57959 47.321655 68.751465 45.921875 C 69.92334 44.522095 70.509277 42.81311 70.509277 40.794922 C 70.509277 38.776733 69.92334 37.05957 68.751465 35.643555 C 67.57959 34.227539 66.033447 32.966187 64.112793 31.859375 L 16.554199 4.222656 C 15.154541 3.408813 13.933838 2.84729 12.89209 2.538086 C 11.850342 2.228882 10.808838 2.074219 9.76709 2.074219 C 7.553467 2.074219 5.551514 2.896118 3.76123 4.540039 C 1.970947 6.18396 1.075684 8.503296 1.075684 11.498047 L 1.075684 70.091797 C 1.075684 73.086548 1.970947 75.405884 3.76123 77.049805 C 5.551514 78.693726 7.553467 79.515625 9.76709 79.515625 Z"/>
    </g>
</svg>
