<?xml version="1.0" encoding="UTF-8"?>
<!-- Generated by Pixelmator Pro 2.4.1 -->
<svg width="100" height="100" viewBox="0 0 100 100" xmlns="http://www.w3.org/2000/svg" xmlns:xlink="http://www.w3.org/1999/xlink">
    <g id="Group">
        <path id="Rounded-Corner-copy-2" fill="#000000" fill-rule="evenodd" stroke="none" d="M 18.530333 46.611065 C 15.508236 45.982079 16.024857 42.835487 16.070612 42.695847 C 19.534903 24.614784 36.785397 12.605476 54.915012 15.589523 L 54.916378 15.581367 C 66.401543 17.500572 75.493843 24.979576 79.995544 34.802177 L 81.603348 28.315369 C 81.603348 28.315369 82.151283 25.387428 84.752754 26.008049 C 87.418747 26.644066 86.884369 29.624306 86.884369 29.624306 L 84.063301 41.006004 L 82.754333 46.287205 L 77.473137 44.978237 L 66.091461 42.15699 C 66.091461 42.15699 62.703831 41.375698 63.366638 38.651562 C 63.976261 36.146011 67.400398 36.875969 67.400398 36.875969 L 74.482491 38.631382 C 71.061089 30.224709 63.552475 23.740303 53.933037 22.09581 C 39.206043 19.625389 25.177862 29.43644 22.487234 44.175083 C 22.487234 44.175083 22.467834 44.171471 22.467718 44.171448 C 22.465498 44.186047 21.969456 47.326847 18.530333 46.611065 Z"/>
        <path id="Rounded-Corner-copy" fill="#000000" fill-rule="evenodd" stroke="none" d="M 81.768768 54.530621 C 84.790871 55.159607 84.274246 58.306198 84.228493 58.445839 C 80.764198 76.526901 63.51371 88.536209 45.38409 85.552162 L 45.382729 85.560318 C 33.89756 83.641113 24.805262 76.162109 20.303564 66.339508 L 18.695755 72.826317 C 18.695755 72.826317 18.147823 75.754257 15.546352 75.133636 C 12.880355 74.49762 13.414734 71.51738 13.414734 71.51738 L 16.235802 60.135681 L 17.544769 54.854481 L 22.825972 56.163445 L 34.207642 58.984695 C 34.207642 58.984695 37.595272 59.765987 36.932465 62.490124 C 36.322842 64.995674 32.898705 64.265717 32.898705 64.265717 L 25.816618 62.510303 C 29.238012 70.916977 36.746628 77.401382 46.366066 79.045876 C 61.09306 81.516296 75.121239 71.705246 77.811867 56.966602 C 77.811867 56.966602 77.831268 56.970215 77.83139 56.970238 C 77.833603 56.955639 78.329651 53.814838 81.768768 54.530621 Z"/>
    </g>
</svg>
