<svg width="136" height="68" viewBox="0 0 136 68" xmlns="http://www.w3.org/2000/svg" xmlns:xlink="http://www.w3.org/1999/xlink">
    <g id="Black-S-copy">
        <path id="Path" fill="#212121" stroke="none" d="M 94.478027 48.375 C 96.625977 47.496094 98.888184 46.617188 101.264893 45.738281 C 103.641113 44.859375 106.049805 44.126953 108.490967 43.541016 C 110.933105 42.955078 113.325684 42.662109 115.668945 42.662109 C 121.495605 42.662109 126.077393 41.701782 129.414063 39.78125 C 132.750732 37.860718 134.418945 35.272827 134.418945 32.017578 C 134.418945 27.199829 133.613281 22.992554 132.001953 19.395508 C 130.390625 15.798462 128.144531 13.007202 125.263916 11.021484 C 122.383301 9.035767 119.022461 8.042969 115.180908 8.042969 C 111.925781 8.042969 109.077393 8.734741 106.635986 10.118164 C 104.194824 11.501587 102.144043 13.365234 100.483887 15.708984 C 98.823242 18.052734 97.537354 20.65686 96.625977 23.521484 C 96.235352 24.725952 95.7146 25.824585 95.063965 26.817383 C 94.412598 27.810181 93.647461 28.672852 92.768799 29.405273 C 91.889893 30.137695 90.929688 30.764282 89.887939 31.285156 C 90.896973 34.14978 91.78418 36.998047 92.549072 39.830078 C 93.313721 42.662109 93.956787 45.510376 94.478027 48.375 Z M 116.254883 28.892578 C 114.952881 28.892578 113.846436 28.43689 112.935059 27.525391 C 112.023682 26.613892 111.568115 25.507202 111.568115 24.205078 C 111.568115 22.935547 112.023682 21.845093 112.935059 20.933594 C 113.846436 20.022095 114.952881 19.566406 116.254883 19.566406 C 117.52417 19.566406 118.61499 20.022095 119.5271 20.933594 C 120.438477 21.845093 120.894043 22.935547 120.894043 24.205078 C 120.894043 25.507202 120.438477 26.613892 119.5271 27.525391 C 118.61499 28.43689 117.52417 28.892578 116.254883 28.892578 Z"/>
        <path id="path1" fill="#4d4d4d" stroke="none" d="M 47.553955 25.816406 C 52.599609 25.816406 57.327637 24.766602 61.738525 22.666992 C 66.149414 20.567383 70.080078 17.548218 73.530518 13.609375 C 69.917236 9.442749 66.059814 6.447876 61.958252 4.625 C 57.856689 2.802124 53.169189 1.87439 47.895752 1.841797 C 44.314941 1.841797 40.945801 2.338257 37.78833 3.331055 C 34.630859 4.323853 31.725586 5.731812 29.07251 7.554688 C 26.419434 9.377563 24.035156 11.542358 21.919189 14.048828 C 25.239502 17.857422 29.088867 20.770874 33.467041 22.789063 C 37.845215 24.807251 42.541016 25.816406 47.553955 25.816406 Z M 47.895752 62.4375 C 50.890625 62.4375 53.649414 62.201538 56.172119 61.729492 C 58.694824 61.257446 61.01416 60.639038 63.130127 59.874023 C 65.246094 59.109009 67.166504 58.303345 68.891846 57.457031 C 66.092285 55.40625 63.708008 53.078735 61.738525 50.474609 C 59.769043 47.870483 58.239258 45.022095 57.148682 41.929688 C 56.058105 38.83728 55.431641 35.549438 55.268799 32.066406 C 52.599609 32.522095 50.027832 32.75 47.553955 32.75 C 46.349609 32.75 45.161377 32.701172 43.989502 32.603516 C 42.817627 32.505859 41.662109 32.359375 40.522705 32.164063 C 40.294922 35.614624 39.651855 38.869751 38.593994 41.929688 C 37.536133 44.989624 36.095703 47.821655 34.272705 50.425781 C 32.449707 53.029907 30.252441 55.390015 27.680908 57.505859 C 29.503906 58.352173 31.44873 59.14978 33.515869 59.898438 C 35.583008 60.647095 37.812744 61.257446 40.205322 61.729492 C 42.5979 62.201538 45.161377 62.4375 47.895752 62.4375 Z M 21.577393 54.527344 C 23.921143 52.867188 25.963867 50.759399 27.705322 48.204102 C 29.446777 45.648804 30.862793 42.841187 31.953369 39.78125 C 33.043945 36.721313 33.751953 33.628906 34.077393 30.503906 C 31.08252 29.46228 28.266846 28.086914 25.630127 26.37793 C 22.993408 24.668945 20.324219 22.479858 17.622314 19.810547 C 16.808594 21.047485 15.986572 22.374023 15.156494 23.790039 C 14.326416 25.206055 13.488281 26.695313 12.641846 28.257813 C 11.697754 30.015625 10.737549 31.56189 9.760986 32.896484 C 8.784424 34.231079 7.840332 35.394897 6.928955 36.387695 C 6.017578 37.380493 5.171143 38.283813 4.389893 39.097656 C 3.022705 40.497437 2.013672 41.644897 1.362549 42.540039 C 0.711426 43.435181 0.385986 44.566406 0.385986 45.933594 C 0.385986 47.75647 1.118408 49.180664 2.583252 50.206055 C 4.048096 51.231445 6.115234 51.744141 8.784424 51.744141 L 12.78833 51.744141 C 14.123047 51.744141 15.522705 52.020874 16.987549 52.574219 C 18.452393 53.127563 19.982422 53.778687 21.577393 54.527344 Z M 74.751221 54.283203 C 76.150879 53.664673 77.851807 53.070679 79.85376 52.500977 C 81.855713 51.931274 83.67041 51.434937 85.298096 51.011719 C 85.949219 50.848999 86.624512 50.678101 87.324463 50.499023 C 88.024414 50.319946 88.618408 50.10022 89.106689 49.839844 C 88.683594 48.082031 88.040527 45.811523 87.177979 43.02832 C 86.31543 40.245117 85.338867 37.331665 84.248291 34.288086 C 83.157715 31.244507 82.042969 28.371704 80.903564 25.669922 C 79.76416 22.96814 78.706299 20.803345 77.729736 19.175781 C 76.102051 20.966187 74.441895 22.553101 72.749268 23.936523 C 71.056641 25.319946 69.306885 26.532593 67.500244 27.574219 C 65.693604 28.615845 63.764893 29.511108 61.714111 30.259766 C 62.00708 33.482422 62.715088 36.607422 63.838135 39.634766 C 64.961182 42.662109 66.442383 45.429077 68.281494 47.935547 C 70.120605 50.442017 72.277344 52.557983 74.751221 54.283203 Z"/>
        <path id="path2" fill="#212121" stroke="none" d="M 88.471924 67.808594 C 91.629395 67.808594 94.119873 67.214478 95.943115 66.026367 C 97.765625 64.838257 98.677002 63.267578 98.677002 61.314453 C 98.677002 59.426392 98.042236 58.165039 96.772949 57.530273 C 95.50293 56.895508 94.151855 56.317749 92.719971 55.796875 C 92.003906 55.601563 91.303955 55.414429 90.620361 55.235352 C 89.936768 55.056274 89.220703 54.885376 88.471924 54.722656 C 86.583984 55.24353 84.411133 55.935181 81.953369 56.797852 C 79.495605 57.660522 77.127441 58.580078 74.848877 59.556641 C 72.570313 60.533203 70.698486 61.444702 69.233643 62.291016 C 70.633301 63.397827 72.399414 64.366211 74.531494 65.196289 C 76.663574 66.026367 78.950439 66.669312 81.391846 67.125 C 83.833252 67.580688 86.193359 67.808594 88.471924 67.808594 Z M 11.567627 67.808594 C 15.018066 67.808594 18.34668 67.328491 21.552979 66.368164 C 24.759277 65.407837 27.518066 64.211548 29.829346 62.779297 C 26.834473 61.412109 23.717773 60.044922 20.47876 58.677734 C 17.239746 57.310547 14.155518 56.073608 11.22583 54.966797 C 10.216797 55.292358 9.297119 55.585327 8.467041 55.845703 C 7.636963 56.106079 6.652344 56.415405 5.512939 56.773438 C 4.601563 57.066406 3.763184 57.58728 2.998291 58.335938 C 2.233398 59.084595 1.85083 60.077515 1.85083 61.314453 C 1.85083 63.267578 2.72168 64.838257 4.463135 66.026367 C 6.20459 67.214478 8.572754 67.808594 11.567627 67.808594 Z"/>
    </g>
</svg>
