<svg width="63" height="72" viewBox="0 0 63 72" xmlns="http://www.w3.org/2000/svg" xmlns:xlink="http://www.w3.org/1999/xlink">
    <g id="Black-S-copy">
        <path id="Path" fill="#000000" stroke="none" d="M 8.939697 71.609375 L 19.193848 71.609375 C 24.07666 71.609375 26.518066 69.167969 26.518066 64.285156 L 26.518066 9.255859 C 26.518066 4.568359 24.07666 2.126953 19.193848 1.931641 L 8.939697 1.931641 C 4.057129 1.931641 1.615723 4.373047 1.615723 9.255859 L 1.615723 64.285156 C 1.485596 69.167969 3.926758 71.609375 8.939697 71.609375 Z M 43.60791 71.609375 L 53.861816 71.609375 C 58.744385 71.609375 61.185791 69.167969 61.185791 64.285156 L 61.185791 9.255859 C 61.185791 4.373047 58.744385 1.931641 53.861816 1.931641 L 43.60791 1.931641 C 38.725098 1.931641 36.283691 4.373047 36.283691 9.255859 L 36.283691 64.285156 C 36.283691 69.167969 38.725098 71.609375 43.60791 71.609375 Z"/>
    </g>
</svg>
