<svg width="127" height="90" viewBox="0 0 127 90" xmlns="http://www.w3.org/2000/svg" xmlns:xlink="http://www.w3.org/1999/xlink">
    <path id="Path-copy" fill="#000000" stroke="none" d="M 66.425049 86.173828 C 67.759766 86.173828 69.289551 85.945923 71.014893 85.490234 C 72.740234 85.034546 74.872314 84.806641 77.411377 84.806641 C 79.169189 84.806641 80.617676 84.920532 81.75708 85.148438 C 82.896484 85.376343 83.970703 85.604126 84.979736 85.832031 C 85.98877 86.059937 87.160645 86.173828 88.495361 86.173828 C 91.262207 86.173828 93.492188 85.563477 95.185059 84.342773 C 96.877686 83.12207 97.723877 81.372437 97.723877 79.09375 C 97.723877 76.945313 97.105225 74.853882 95.86792 72.819336 C 94.631348 70.78479 92.727051 69.108398 90.155518 67.790039 C 87.583984 66.47168 84.296143 65.8125 80.292236 65.8125 C 78.078613 65.8125 76.247559 65.950806 74.799072 66.227539 C 73.350586 66.504272 72.04834 66.813477 70.892822 67.155273 C 69.737305 67.49707 68.492188 67.765625 67.157471 67.960938 L 62.22583 57.707031 C 60.598145 54.321655 58.514893 51.595337 55.97583 49.52832 C 53.436768 47.461304 50.669922 45.963867 47.675049 45.036133 C 44.680176 44.108398 41.685547 43.644531 38.690674 43.644531 L 33.807861 43.644531 C 31.203613 43.644531 29.901611 42.488892 29.901611 40.177734 C 29.901611 38.387329 30.76416 37.199219 32.489502 36.613281 C 34.214844 36.027344 36.167969 35.734375 38.348877 35.734375 C 44.761719 35.734375 50.677979 37.305054 56.0979 40.446289 C 61.517822 43.587524 65.871582 48.527344 69.159424 55.265625 L 71.649658 60.34375 C 72.919189 60.115845 74.245605 59.944946 75.62915 59.831055 C 77.012695 59.717163 78.42041 59.660156 79.852783 59.660156 C 80.992188 59.660156 82.155762 59.717163 83.343994 59.831055 C 84.532227 59.944946 85.712158 60.197266 86.884033 60.587891 C 88.186035 60.132202 89.496338 59.651978 90.814697 59.147461 C 92.133057 58.642944 93.247803 58.081421 94.158936 57.462891 C 95.754395 58.439453 97.414551 59.448608 99.139893 60.490234 C 100.865234 61.53186 102.891602 62.410767 105.218994 63.126953 C 107.546387 63.84314 110.402588 64.201172 113.788086 64.201172 C 116.19751 64.201172 118.337646 63.721069 120.208984 62.760742 C 122.081055 61.800415 123.553955 60.246094 124.62793 58.097656 C 125.702637 55.949219 126.23999 53.100952 126.23999 49.552734 C 126.23999 46.427734 125.735352 43.400391 124.726074 40.470703 C 123.716553 37.541016 122.210938 34.928711 120.208984 32.633789 C 118.207031 30.338867 115.725098 28.572876 112.762939 27.335938 C 109.801025 26.098999 106.366699 25.626953 102.459961 25.919922 L 94.550049 12.785156 C 92.076172 8.651001 89 5.672485 85.321533 3.849609 C 81.643066 2.026733 77.964844 1.115234 74.286377 1.115234 C 72.821533 1.115234 71.120605 1.294312 69.183838 1.652344 C 67.24707 2.010376 65.35083 2.523071 63.495361 3.19043 C 61.639893 3.857788 60.101807 4.647095 58.881104 5.558594 C 57.6604 6.470093 57.050049 7.479126 57.050049 8.585938 C 57.050049 9.464844 57.668457 10.514648 58.905518 11.735352 C 60.142578 12.956055 61.65625 14.209351 63.446533 15.495117 C 65.236816 16.780884 66.962158 18.009766 68.622314 19.181641 L 89.276611 33.585938 C 88.430176 34.269531 87.632813 34.84729 86.884033 35.319336 C 86.135254 35.791382 85.028564 36.027344 83.563721 36.027344 C 81.708252 36.027344 79.763184 35.457642 77.72876 34.318359 C 75.694336 33.179077 73.765625 32.153687 71.942627 31.242188 C 68.719971 29.09375 65.765869 27.12439 63.080322 25.333984 C 60.394775 23.543579 57.774414 21.997437 55.218994 20.695313 C 52.663574 19.393188 49.953613 18.392212 47.089111 17.692383 C 44.224609 16.992554 40.985596 16.642578 37.372314 16.642578 C 33.270752 16.642578 29.315674 17.415649 25.50708 18.961914 C 21.698486 20.508179 18.288574 22.982056 15.277588 26.383789 C 12.266602 29.785522 9.865723 34.302124 8.075439 39.933594 C 5.894531 39.770874 4.095947 40.275391 2.679932 41.447266 C 1.263916 42.619141 0.555908 44.165405 0.555908 46.085938 C 0.555908 48.169312 1.345215 49.845703 2.924072 51.115234 C 4.50293 52.384766 6.561768 52.970703 9.10083 52.873047 C 11.151611 56.714233 13.397705 59.741577 15.839111 61.955078 C 18.280518 64.168579 21.112549 65.747437 24.335205 66.691406 C 27.557861 67.635376 31.366455 68.107422 35.760986 68.107422 C 36.151611 68.107422 36.550293 68.107422 36.957275 68.107422 C 37.364258 68.107422 37.779297 68.091187 38.202393 68.058594 L 54.510986 81.925781 C 56.431641 83.585938 58.466064 84.708984 60.614502 85.294922 C 62.762939 85.880859 64.699707 86.173828 66.425049 86.173828 Z M 33.466064 89.494141 C 36.721191 89.494141 39.553223 89.217407 41.962158 88.664063 C 44.371094 88.110718 46.552002 87.231812 48.505127 86.027344 L 37.128174 76.261719 C 36.867676 76.294312 36.591064 76.318726 36.298096 76.334961 C 36.005127 76.351196 35.695801 76.359375 35.370361 76.359375 C 34.556641 76.359375 33.254395 76.25354 31.464111 76.041992 C 29.673828 75.830444 28.013672 75.724609 26.483643 75.724609 C 24.400391 75.724609 22.756348 76.221069 21.552002 77.213867 C 20.347656 78.206665 19.745361 79.516968 19.745361 81.144531 C 19.745361 83.61853 20.998535 85.62854 23.505127 87.174805 C 26.011719 88.721069 29.332031 89.494141 33.466064 89.494141 Z M 108.173096 48.869141 C 106.936523 48.869141 105.870361 48.413452 104.975098 47.501953 C 104.079834 46.590454 103.63208 45.516235 103.63208 44.279297 C 103.63208 42.977173 104.079834 41.862305 104.975098 40.93457 C 105.870361 40.006836 106.952637 39.542969 108.221924 39.542969 C 109.491211 39.542969 110.57373 39.990601 111.468994 40.885742 C 112.364258 41.780884 112.812012 42.847046 112.812012 44.083984 C 112.812012 45.386108 112.356445 46.509155 111.445068 47.453125 C 110.532959 48.397095 109.442383 48.869141 108.173096 48.869141 Z"/>
</svg>
