<?xml version="1.0" encoding="UTF-8"?>
<svg width="142px" height="200px" viewBox="0 0 142 200" xmlns="http://www.w3.org/2000/svg" xmlns:xlink="http://www.w3.org/1999/xlink" version="1.1">
 <!-- Generated by Pixelmator Pro 1.7.1 -->
 <g id="New-Group">
  <path id="Shape" d="M26.101 -219 C13.343 -219 3 -208.657 3 -195.899 L3 24.899 C3 37.657 13.343 48 26.101 48 L116.354 48 C129.112 48 139.455 37.657 139.455 24.899 L139.455 -195.899 C139.455 -208.657 129.112 -219 116.354 -219 Z" fill="#508efc" fill-opacity="1" stroke="none"/>
  <path id="Shape-copy" d="M28.343 -203.53 C22.279 -203.53 17.364 -198.271 17.364 -191.785 L17.364 23.716 C17.364 30.203 22.279 35.461 28.343 35.461 L113.788 35.461 C119.851 35.461 124.767 30.203 124.767 23.716 L124.767 -191.785 C124.767 -198.271 119.851 -203.53 113.788 -203.53 113.788 -203.53 104.32 -203.531 104.241 -203.53 100.694 -203.483 101.502 -194.262 97.081 -194.338 95.431 -194.366 45.909 -194.273 44.095 -194.338 40.512 -194.466 41.692 -203.377 37.624 -203.53 37.538 -203.533 28.343 -203.53 28.343 -203.53 Z" fill="#e3efff" fill-opacity="1" stroke="none"/>
 </g>
 <g id="Cable">
  <defs>
   <path id="Path" d="M70.056 98 C65.021 98.038 65.015 98.038 65.001 104.5 L65.001 104.5 C64.999 104.544 65.001 111 65.001 111 65.001 111 78.999 111 78.999 111 78.999 111 78.999 108.09 78.999 104.5 L78.999 104.5 C78.997 98.033 78.975 98.007 73.944 98 L70.056 98 Z"/>
  </defs>
  <use id="Path-1" xlink:href="#Path" fill="#898e93" fill-opacity="1" stroke="none"/>
  <defs>
   <path id="stroke-path" d="M78.609 100.516 L78.219 99.125 77.797 98.703 76.219 98.313 70.063 98.266 66.563 98.547 65.609 99.5 65.281 110.734 78.719 110.734 Z"/>
  </defs>
  <use id="Path-2" stroke="#727272" stroke-opacity="1" stroke-linecap="round" fill="none" stroke-width="0.537" xlink:href="#stroke-path"/>
  <defs>
   <path id="Rectangle" d="M69.341 253 L74.415 253 74.415 162.951 69.341 162.951 Z"/>
  </defs>
  <use id="Rectangle-1" xlink:href="#Rectangle" fill="#ffffff" fill-opacity="1" stroke="none"/>
  <defs>
   <path id="stroke-path-1" d="M75.047 162.313 L68.688 162.313 68.688 253.641 75.047 253.641 Z"/>
  </defs>
  <use id="Rectangle-2" stroke="#c7c7c7" stroke-opacity="1" stroke-linecap="round" fill="none" stroke-width="1.268" xlink:href="#stroke-path-1"/>
  <defs>
   <path id="Rectangle-3" d="M68.073 161.683 L75.683 161.683 75.683 140.122 68.073 140.122 Z"/>
  </defs>
  <use id="Rectangle-4" xlink:href="#Rectangle-3" fill="#ffffff" fill-opacity="1" stroke="none"/>
  <defs>
   <path id="stroke-path-2" d="M76.313 139.484 L67.422 139.484 67.422 162.328 76.313 162.328 Z"/>
  </defs>
  <use id="Rectangle-5" stroke="#c7c7c7" stroke-opacity="1" stroke-linecap="round" fill="none" stroke-width="1.268" xlink:href="#stroke-path-2"/>
  <defs>
   <path id="Rectangle-6" d="M63 140.854 L80.756 140.854 80.756 110.415 63 110.415 Z"/>
  </defs>
  <use id="Rectangle-7" xlink:href="#Rectangle-6" fill="#ffffff" fill-opacity="1" stroke="none"/>
  <defs>
   <path id="stroke-path-3" d="M80.109 111.063 L63.641 111.063 63.641 140.219 80.109 140.219 Z"/>
  </defs>
  <use id="Rectangle-8" stroke="#b3b3b3" stroke-opacity="0.6" stroke-linecap="round" fill="none" stroke-width="1.268" xlink:href="#stroke-path-3"/>
 </g>
 <path id="Arrow" d="M72 61 L85 73.571 76.94 73.571 76.94 83 67.06 83 67.06 73.571 59 73.571 Z" fill="#508efc" fill-opacity="1" stroke="none"/>
</svg>
